<svg width="1063" height="1063" viewBox="-346 -272 1063 1063" xmlns="http://www.w3.org/2000/svg">
  <g fill="none" fill-rule="evenodd" transform="translate(-346 -272)">
    <circle fill="#403F4C" cx="531.308" cy="531.308" r="531.308"/>
    <g fill-rule="nonzero" fill="#FFF">
      <path d="M595.75 836.68c0 10.048-14.496 18.195-32.375 18.195h-64.75c-17.88 0-32.375-8.147-32.375-18.195V727.508c0-10.05 14.496-18.196 32.375-18.196h64.75c17.88 0 32.375 8.147 32.375 18.196V836.68z"/>
      <path d="M402.803 725.375c-22.03 0-28.19-15.095-13.678-33.55l115.497-146.86c14.513-18.453 38.252-18.453 52.764 0l115.49 146.87c14.51 18.453 8.352 33.548-13.68 33.548H402.804v-.008z"/>
    </g>
    <path d="M292.5 492.475l-73.855 38.828 14.105-82.24-59.75-58.24 82.572-12L292.5 304l36.928 74.823 82.572 12-59.75 58.24 14.105 82.24M531.5 378.475l-73.855 38.828 14.105-82.24-59.75-58.24 82.572-12L531.5 190l36.928 74.823 82.572 12-59.75 58.24 14.105 82.24M770.5 492.475l-73.855 38.828 14.105-82.24-59.75-58.24 82.572-12L770.5 304l36.928 74.823 82.572 12-59.75 58.24 14.105 82.24" fill="#F9DC5C"/>
  </g>
</svg>
